<mxfile host="app.diagrams.net" modified="2022-03-07T08:31:21.825Z" agent="5.0 (Windows NT 10.0; Win64; x64) AppleWebKit/537.36 (KHTML, like Gecko) Chrome/99.0.4844.51 Safari/537.36" etag="zR3PmrKbGs1LmE6mmXmv" version="16.6.6" type="github">
  <diagram id="pnTwHTtoc6qKJ2tYIUsI" name="Page-1">
    <mxGraphModel dx="331" dy="171" grid="1" gridSize="10" guides="1" tooltips="1" connect="1" arrows="1" fold="1" page="1" pageScale="1" pageWidth="850" pageHeight="1100" math="0" shadow="0">
      <root>
        <mxCell id="0" />
        <mxCell id="1" parent="0" />
        <mxCell id="FJSbHB7y34rg23TbDinh-5" value="«Frontend»&lt;br&gt;&lt;b&gt;Web NFC&lt;br&gt;&lt;/b&gt;(Chrome, Opera Android, &lt;br&gt;Samsung Internet)" style="html=1;dropTarget=0;" parent="1" vertex="1">
          <mxGeometry x="150" y="670" width="180" height="90" as="geometry" />
        </mxCell>
        <mxCell id="FJSbHB7y34rg23TbDinh-6" value="" style="shape=module;jettyWidth=8;jettyHeight=4;" parent="FJSbHB7y34rg23TbDinh-5" vertex="1">
          <mxGeometry x="1" width="20" height="20" relative="1" as="geometry">
            <mxPoint x="-27" y="7" as="offset" />
          </mxGeometry>
        </mxCell>
        <mxCell id="aJVSoK5bzTk0aV2jSWWW-1" value="" style="whiteSpace=wrap;html=1;strokeColor=none;strokeWidth=1;fillColor=#f5f5f5;fontSize=14;fontStyle=1" vertex="1" parent="1">
          <mxGeometry x="130" y="550" width="1195" height="249" as="geometry" />
        </mxCell>
        <mxCell id="aJVSoK5bzTk0aV2jSWWW-2" value="" style="whiteSpace=wrap;html=1;strokeColor=none;strokeWidth=1;fillColor=#f5f5f5;fontSize=14;" vertex="1" parent="1">
          <mxGeometry x="180" y="200" width="1190" height="300" as="geometry" />
        </mxCell>
        <mxCell id="aJVSoK5bzTk0aV2jSWWW-3" style="edgeStyle=orthogonalEdgeStyle;rounded=0;orthogonalLoop=1;jettySize=auto;html=1;exitX=1;exitY=0.5;exitDx=0;exitDy=0;exitPerimeter=0;endArrow=none;endFill=0;" edge="1" parent="1" source="aJVSoK5bzTk0aV2jSWWW-4" target="aJVSoK5bzTk0aV2jSWWW-17">
          <mxGeometry relative="1" as="geometry" />
        </mxCell>
        <mxCell id="aJVSoK5bzTk0aV2jSWWW-4" value="Web App" style="html=1;outlineConnect=0;whiteSpace=wrap;fillColor=#99ffff;shape=mxgraph.archimate3.application;appType=comp;archiType=square;" vertex="1" parent="1">
          <mxGeometry x="430" y="587" width="150" height="75" as="geometry" />
        </mxCell>
        <mxCell id="aJVSoK5bzTk0aV2jSWWW-5" value="Smartphone" style="html=1;outlineConnect=0;whiteSpace=wrap;fillColor=#AFFFAF;shape=mxgraph.archimate3.device;" vertex="1" parent="1">
          <mxGeometry x="780" y="258" width="213" height="216.5" as="geometry" />
        </mxCell>
        <mxCell id="aJVSoK5bzTk0aV2jSWWW-6" style="edgeStyle=orthogonalEdgeStyle;rounded=0;orthogonalLoop=1;jettySize=auto;html=1;exitX=0;exitY=0.5;exitDx=0;exitDy=0;exitPerimeter=0;entryX=1;entryY=0.25;entryDx=0;entryDy=0;entryPerimeter=0;endArrow=none;endFill=0;" edge="1" parent="1" source="aJVSoK5bzTk0aV2jSWWW-7" target="aJVSoK5bzTk0aV2jSWWW-5">
          <mxGeometry relative="1" as="geometry" />
        </mxCell>
        <mxCell id="aJVSoK5bzTk0aV2jSWWW-7" value="Benutzer" style="html=1;outlineConnect=0;whiteSpace=wrap;fillColor=#ffff99;shape=mxgraph.archimate3.application;appType=actor;archiType=square;" vertex="1" parent="1">
          <mxGeometry x="1079" y="270" width="157" height="84" as="geometry" />
        </mxCell>
        <mxCell id="aJVSoK5bzTk0aV2jSWWW-8" value="" style="edgeStyle=orthogonalEdgeStyle;rounded=0;orthogonalLoop=1;jettySize=auto;html=1;endArrow=none;endFill=0;" edge="1" parent="1" source="aJVSoK5bzTk0aV2jSWWW-9" target="aJVSoK5bzTk0aV2jSWWW-4">
          <mxGeometry relative="1" as="geometry" />
        </mxCell>
        <mxCell id="aJVSoK5bzTk0aV2jSWWW-9" value="Datenbank" style="html=1;outlineConnect=0;whiteSpace=wrap;fillColor=#AFFFAF;shape=mxgraph.archimate3.application;appType=node;archiType=square;" vertex="1" parent="1">
          <mxGeometry x="430" y="697" width="150" height="75" as="geometry" />
        </mxCell>
        <mxCell id="aJVSoK5bzTk0aV2jSWWW-10" value="PW Applikation" style="html=1;outlineConnect=0;whiteSpace=wrap;fillColor=#99ffff;shape=mxgraph.archimate3.application;appType=comp;archiType=square;" vertex="1" parent="1">
          <mxGeometry x="811.5" y="274.5" width="150" height="75" as="geometry" />
        </mxCell>
        <mxCell id="aJVSoK5bzTk0aV2jSWWW-11" value="Firebase Auth" style="html=1;outlineConnect=0;whiteSpace=wrap;fillColor=#AFFFAF;shape=mxgraph.archimate3.application;appType=node;archiType=square;" vertex="1" parent="1">
          <mxGeometry x="860" y="587" width="150" height="75" as="geometry" />
        </mxCell>
        <mxCell id="aJVSoK5bzTk0aV2jSWWW-12" value="NFC-Tag" style="html=1;outlineConnect=0;whiteSpace=wrap;fillColor=#AFFFAF;shape=mxgraph.archimate3.application;appType=node;archiType=square;spacingTop=65;" vertex="1" parent="1">
          <mxGeometry x="480" y="390" width="129" height="80" as="geometry" />
        </mxCell>
        <mxCell id="aJVSoK5bzTk0aV2jSWWW-16" value="" style="edgeStyle=orthogonalEdgeStyle;rounded=0;orthogonalLoop=1;jettySize=auto;html=1;endArrow=none;endFill=0;exitX=0.75;exitY=0;exitDx=0;exitDy=0;exitPerimeter=0;entryX=0.25;entryY=1;entryDx=0;entryDy=0;entryPerimeter=0;" edge="1" parent="1" source="aJVSoK5bzTk0aV2jSWWW-17" target="aJVSoK5bzTk0aV2jSWWW-5">
          <mxGeometry relative="1" as="geometry" />
        </mxCell>
        <mxCell id="aJVSoK5bzTk0aV2jSWWW-17" value="REST API" style="html=1;outlineConnect=0;whiteSpace=wrap;fillColor=#99ffff;shape=mxgraph.archimate3.application;appType=interface;archiType=square;" vertex="1" parent="1">
          <mxGeometry x="671" y="587" width="150" height="75" as="geometry" />
        </mxCell>
        <mxCell id="aJVSoK5bzTk0aV2jSWWW-18" value="" style="edgeStyle=elbowEdgeStyle;html=1;endArrow=none;elbow=vertical;rounded=0;exitX=0.25;exitY=0;exitDx=0;exitDy=0;exitPerimeter=0;" edge="1" parent="1" source="aJVSoK5bzTk0aV2jSWWW-17">
          <mxGeometry width="160" relative="1" as="geometry">
            <mxPoint x="663" y="634" as="sourcePoint" />
            <mxPoint x="610" y="425" as="targetPoint" />
            <Array as="points">
              <mxPoint x="658" y="425" />
              <mxPoint x="646" y="316" />
            </Array>
          </mxGeometry>
        </mxCell>
        <mxCell id="aJVSoK5bzTk0aV2jSWWW-19" value="" style="edgeStyle=elbowEdgeStyle;html=1;endArrow=open;elbow=vertical;endFill=1;rounded=0;strokeWidth=3;startArrow=open;startFill=0;entryX=0;entryY=0.25;entryDx=0;entryDy=0;entryPerimeter=0;exitX=0.5;exitY=0;exitDx=0;exitDy=0;exitPerimeter=0;dashed=1;" edge="1" parent="1" source="aJVSoK5bzTk0aV2jSWWW-12" target="aJVSoK5bzTk0aV2jSWWW-5">
          <mxGeometry width="160" relative="1" as="geometry">
            <mxPoint x="620" y="334" as="sourcePoint" />
            <mxPoint x="780" y="334" as="targetPoint" />
            <Array as="points">
              <mxPoint x="656" y="312" />
            </Array>
          </mxGeometry>
        </mxCell>
        <mxCell id="aJVSoK5bzTk0aV2jSWWW-20" value="activated NFC" style="edgeLabel;html=1;align=center;verticalAlign=middle;resizable=0;points=[];spacingBottom=15;fontSize=13;" vertex="1" connectable="0" parent="aJVSoK5bzTk0aV2jSWWW-19">
          <mxGeometry x="0.0401" y="2" relative="1" as="geometry">
            <mxPoint as="offset" />
          </mxGeometry>
        </mxCell>
        <mxCell id="aJVSoK5bzTk0aV2jSWWW-21" value="" style="edgeStyle=elbowEdgeStyle;html=1;endArrow=none;elbow=vertical;rounded=0;entryX=0.5;entryY=0;entryDx=0;entryDy=0;entryPerimeter=0;exitX=0.5;exitY=1;exitDx=0;exitDy=0;exitPerimeter=0;" edge="1" parent="1" source="aJVSoK5bzTk0aV2jSWWW-5" target="aJVSoK5bzTk0aV2jSWWW-11">
          <mxGeometry width="160" relative="1" as="geometry">
            <mxPoint x="867" y="534" as="sourcePoint" />
            <mxPoint x="799" y="544" as="targetPoint" />
            <Array as="points">
              <mxPoint x="935" y="534" />
              <mxPoint x="1013" y="530" />
            </Array>
          </mxGeometry>
        </mxCell>
        <mxCell id="aJVSoK5bzTk0aV2jSWWW-22" value="Firestore" style="html=1;outlineConnect=0;whiteSpace=wrap;fillColor=#AFFFAF;shape=mxgraph.archimate3.application;appType=node;archiType=square;" vertex="1" parent="1">
          <mxGeometry x="1046" y="587" width="150" height="75" as="geometry" />
        </mxCell>
        <mxCell id="aJVSoK5bzTk0aV2jSWWW-23" value="" style="edgeStyle=elbowEdgeStyle;html=1;endArrow=none;elbow=vertical;rounded=0;entryX=0.812;entryY=1.002;entryDx=0;entryDy=0;entryPerimeter=0;" edge="1" parent="1" source="aJVSoK5bzTk0aV2jSWWW-22" target="aJVSoK5bzTk0aV2jSWWW-5">
          <mxGeometry width="160" relative="1" as="geometry">
            <mxPoint x="639" y="522" as="sourcePoint" />
            <mxPoint x="799" y="522" as="targetPoint" />
          </mxGeometry>
        </mxCell>
      </root>
    </mxGraphModel>
  </diagram>
</mxfile>
